<svg width="22" height="23" viewBox="0 0 22 23" fill="none" xmlns="http://www.w3.org/2000/svg">
<path d="M4.00002 5.52858L0.757019 2.28658L2.17202 0.871582L5.41402 4.11458H20.656C20.8119 4.11457 20.9656 4.151 21.1049 4.22095C21.2442 4.2909 21.3652 4.39245 21.4583 4.51748C21.5513 4.64251 21.6139 4.78757 21.6409 4.94107C21.668 5.09457 21.6588 5.25227 21.614 5.40158L19.214 13.4016C19.1523 13.6077 19.0257 13.7883 18.8531 13.9168C18.6806 14.0452 18.4712 14.1146 18.256 14.1146H6.00002V16.1146H17V18.1146H5.00002C4.7348 18.1146 4.48045 18.0092 4.29291 17.8217C4.10538 17.6342 4.00002 17.3798 4.00002 17.1146V5.52858ZM5.50002 22.1146C5.10219 22.1146 4.72066 21.9565 4.43936 21.6752C4.15805 21.3939 4.00002 21.0124 4.00002 20.6146C4.00002 20.2168 4.15805 19.8352 4.43936 19.5539C4.72066 19.2726 5.10219 19.1146 5.50002 19.1146C5.89784 19.1146 6.27938 19.2726 6.56068 19.5539C6.84198 19.8352 7.00002 20.2168 7.00002 20.6146C7.00002 21.0124 6.84198 21.3939 6.56068 21.6752C6.27938 21.9565 5.89784 22.1146 5.50002 22.1146ZM17.5 22.1146C17.1022 22.1146 16.7207 21.9565 16.4394 21.6752C16.1581 21.3939 16 21.0124 16 20.6146C16 20.2168 16.1581 19.8352 16.4394 19.5539C16.7207 19.2726 17.1022 19.1146 17.5 19.1146C17.8978 19.1146 18.2794 19.2726 18.5607 19.5539C18.842 19.8352 19 20.2168 19 20.6146C19 21.0124 18.842 21.3939 18.5607 21.6752C18.2794 21.9565 17.8978 22.1146 17.5 22.1146Z" fill="#770015"/>
</svg>
