<svg width="19" height="20" viewBox="0 0 19 20" fill="none" xmlns="http://www.w3.org/2000/svg">
<path d="M11.576 15.3859L6.46599 12.5989C5.97548 13.0858 5.3518 13.4165 4.67358 13.5495C3.99535 13.6824 3.29295 13.6116 2.65491 13.346C2.01688 13.0803 1.47178 12.6317 1.08834 12.0567C0.704894 11.4817 0.500275 10.806 0.500275 10.1149C0.500275 9.42372 0.704894 8.74806 1.08834 8.17305C1.47178 7.59804 2.01688 7.14942 2.65491 6.88376C3.29295 6.61809 3.99535 6.54727 4.67358 6.68023C5.3518 6.81318 5.97548 7.14396 6.46599 7.63086L11.576 4.84386C11.4007 4.02159 11.5273 3.16372 11.9326 2.42711C12.3378 1.6905 12.9947 1.12439 13.7831 0.83229C14.5714 0.540192 15.4386 0.541631 16.226 0.836343C17.0134 1.13106 17.6684 1.69935 18.0712 2.43729C18.474 3.17524 18.5978 4.03353 18.4198 4.85521C18.2418 5.67689 17.774 6.40705 17.1019 6.91216C16.4298 7.41727 15.5984 7.66358 14.7596 7.60605C13.9208 7.54853 13.1308 7.191 12.534 6.59886L7.42399 9.38586C7.52592 9.86651 7.52592 10.3632 7.42399 10.8439L12.534 13.6309C13.1308 13.0387 13.9208 12.6812 14.7596 12.6237C15.5984 12.5661 16.4298 12.8124 17.1019 13.3176C17.774 13.8227 18.2418 14.5528 18.4198 15.3745C18.5978 16.1962 18.474 17.0545 18.0712 17.7924C17.6684 18.5304 17.0134 19.0987 16.226 19.3934C15.4386 19.6881 14.5714 19.6895 13.7831 19.3974C12.9947 19.1053 12.3378 18.5392 11.9326 17.8026C11.5273 17.066 11.4007 16.2081 11.576 15.3859Z" fill="#770015"/>
</svg>
