<svg width="21" height="19" viewBox="0 0 21 19" fill="none" xmlns="http://www.w3.org/2000/svg">
<path d="M18.9096 1.75698C21.1716 4.02498 21.2496 7.63698 19.1456 9.99298L10.6656 18.485L2.18763 9.99298C0.083632 7.63698 0.162632 4.01898 2.42363 1.75698C4.68863 -0.50702 8.31163 -0.58302 10.6676 1.52898C13.0166 -0.58002 16.6466 -0.51002 18.9096 1.75698ZM3.83863 3.17198C2.34863 4.66198 2.27363 7.04698 3.64663 8.62298L10.6666 15.654L17.6866 8.62398C19.0606 7.04698 18.9856 4.66498 17.4936 3.16998C16.0066 1.67998 13.6126 1.60798 12.0406 2.98398L7.83863 7.18698L6.42363 5.77298L9.24863 2.94598L9.16663 2.87698C7.59163 1.61198 5.28963 1.71998 3.83863 3.17198Z" fill="#858585"/>
</svg>
